<mxfile host="app.diagrams.net" agent="Mozilla/5.0 (Macintosh; Intel Mac OS X 10_15_7) AppleWebKit/537.36 (KHTML, like Gecko) Chrome/127.0.0.0 Safari/537.36" version="24.7.7">
  <diagram name="Page-1" id="X3xUlvVhnp5LeFirYPRD">
    <mxGraphModel dx="1026" dy="585" grid="1" gridSize="10" guides="1" tooltips="1" connect="1" arrows="1" fold="1" page="1" pageScale="1" pageWidth="850" pageHeight="1100" math="0" shadow="0">
      <root>
        <mxCell id="0" />
        <mxCell id="1" parent="0" />
        <UserObject label="&lt;font color=&quot;#ffffff&quot; style=&quot;font-size: 10px;&quot;&gt;Move ahead? (#9)&lt;/font&gt;" link="#point9" id="28ap5lXa6g6a-z7-tknB-5">
          <mxCell style="rhombus;whiteSpace=wrap;html=1;strokeColor=none;fillColor=#1b75bb;fontFamily=Figtree;fontSource=https%3A%2F%2Ffonts.googleapis.com%2Fcss%3Ffamily%3DFigtree;fontSize=10;" parent="1" vertex="1">
            <mxGeometry x="420" y="270" width="160" height="80" as="geometry" />
          </mxCell>
        </UserObject>
        <UserObject label="&lt;font style=&quot;font-size: 10px;&quot; data-font-src=&quot;https://fonts.googleapis.com/css?family=Figtree&quot; color=&quot;#ffffff&quot;&gt;Proceed to DEVELOPMENT&lt;/font&gt;" link="#section_4" id="28ap5lXa6g6a-z7-tknB-6">
          <mxCell style="rounded=0;whiteSpace=wrap;html=1;strokeColor=none;fillColor=#9f79b0;fontFamily=Figtree;fontSource=https%3A%2F%2Ffonts.googleapis.com%2Fcss%3Ffamily%3DFigtree;fontSize=10;" parent="1" vertex="1">
            <mxGeometry x="420" y="900" width="160" height="50" as="geometry" />
          </mxCell>
        </UserObject>
        <UserObject label="&lt;font style=&quot;font-size: 10px;&quot; color=&quot;#ffffff&quot;&gt;&lt;span style=&quot;caret-color: rgb(255, 255, 255); font-size: 10px;&quot;&gt;Establish Study Group and set up&lt;/span&gt;&lt;/font&gt;&lt;div style=&quot;font-size: 10px;&quot;&gt;&lt;font style=&quot;font-size: 10px;&quot; color=&quot;#ffffff&quot;&gt;&lt;span style=&quot;caret-color: rgb(255, 255, 255); font-size: 10px;&quot;&gt;Product Review Committee (PRC)&lt;/span&gt;&lt;/font&gt;&lt;/div&gt;&lt;div style=&quot;font-size: 10px;&quot;&gt;&lt;font style=&quot;font-size: 10px;&quot; color=&quot;#ffffff&quot;&gt;&lt;span style=&quot;caret-color: rgb(255, 255, 255); font-size: 10px;&quot;&gt;(#6-8)&lt;/span&gt;&lt;/font&gt;&lt;/div&gt;&lt;div style=&quot;font-size: 10px;&quot;&gt;&lt;font style=&quot;font-size: 10px;&quot; color=&quot;#ffffff&quot;&gt;&lt;span style=&quot;caret-color: rgb(255, 255, 255); font-size: 10px;&quot;&gt;• Conduct broad outreach&lt;/span&gt;&lt;/font&gt;&lt;/div&gt;&lt;div style=&quot;font-size: 10px;&quot;&gt;&lt;font style=&quot;font-size: 10px;&quot; color=&quot;#ffffff&quot;&gt;&lt;span style=&quot;caret-color: rgb(255, 255, 255); font-size: 10px;&quot;&gt;• Conduct landscape analysis&lt;/span&gt;&lt;/font&gt;&lt;/div&gt;&lt;div style=&quot;font-size: 10px;&quot;&gt;&lt;font style=&quot;font-size: 10px;&quot; color=&quot;#ffffff&quot;&gt;&lt;span style=&quot;caret-color: rgb(255, 255, 255); font-size: 10px;&quot;&gt;• Engage stakeholders&lt;/span&gt;&lt;/font&gt;&lt;/div&gt;&lt;div style=&quot;font-size: 10px;&quot;&gt;&lt;font style=&quot;font-size: 10px;&quot; color=&quot;#ffffff&quot;&gt;&lt;span style=&quot;caret-color: rgb(255, 255, 255); font-size: 10px;&quot;&gt;• Gather and define use cases&lt;/span&gt;&lt;/font&gt;&lt;/div&gt;&lt;div style=&quot;font-size: 10px;&quot;&gt;&lt;font style=&quot;font-size: 10px;&quot; color=&quot;#ffffff&quot;&gt;&lt;span style=&quot;caret-color: rgb(255, 255, 255); font-size: 10px;&quot;&gt;• Consult Regulatory &amp;amp; Ethics&amp;nbsp;&lt;/span&gt;&lt;/font&gt;&lt;/div&gt;&lt;div style=&quot;font-size: 10px;&quot;&gt;&lt;font style=&quot;font-size: 10px;&quot; color=&quot;#ffffff&quot;&gt;&lt;span style=&quot;caret-color: rgb(255, 255, 255); font-size: 10px;&quot;&gt;and&amp;nbsp;Security&lt;/span&gt;&lt;/font&gt;&lt;/div&gt;&lt;div style=&quot;font-size: 10px;&quot;&gt;&lt;font style=&quot;font-size: 10px;&quot; color=&quot;#ffffff&quot;&gt;• Develop Problem Statement to&amp;nbsp;&lt;/font&gt;&lt;/div&gt;&lt;div style=&quot;font-size: 10px;&quot;&gt;&lt;font style=&quot;font-size: 10px;&quot; color=&quot;#ffffff&quot;&gt;define scope&lt;/font&gt;&lt;/div&gt;" link="#point6" id="28ap5lXa6g6a-z7-tknB-8">
          <mxCell style="rounded=0;whiteSpace=wrap;html=1;strokeColor=none;fillColor=#4FAEDC;fontFamily=Figtree;fontSource=https%3A%2F%2Ffonts.googleapis.com%2Fcss%3Ffamily%3DFigtree;fontSize=10;" parent="1" vertex="1">
            <mxGeometry x="410" y="90" width="180" height="150" as="geometry" />
          </mxCell>
        </UserObject>
        <UserObject label="&lt;span style=&quot;color: rgb(255, 255, 255); font-size: 10px; background-color: initial;&quot;&gt;Product Steering&lt;/span&gt;&lt;div&gt;&lt;span style=&quot;color: rgb(255, 255, 255); font-size: 10px; background-color: initial;&quot;&gt;Committee&lt;/span&gt;&lt;div style=&quot;font-size: 10px;&quot;&gt;&lt;span style=&quot;color: rgb(255, 255, 255); font-size: 10px; background-color: initial;&quot;&gt;approves? (#13)&lt;/span&gt;&lt;/div&gt;&lt;/div&gt;" link="#point13" id="28ap5lXa6g6a-z7-tknB-13">
          <mxCell style="rhombus;whiteSpace=wrap;html=1;strokeColor=none;fillColor=#1b75bb;fontFamily=Figtree;fontSource=https%3A%2F%2Ffonts.googleapis.com%2Fcss%3Ffamily%3DFigtree;fontSize=10;" parent="1" vertex="1">
            <mxGeometry x="420" y="770" width="160" height="80" as="geometry" />
          </mxCell>
        </UserObject>
        <UserObject label="&lt;font color=&quot;#ffffff&quot; style=&quot;font-size: 10px;&quot;&gt;Study Group reviews feedback (#9)&lt;/font&gt;" link="#point9" id="28ap5lXa6g6a-z7-tknB-15">
          <mxCell style="rounded=0;whiteSpace=wrap;html=1;strokeColor=none;fillColor=#4FAEDC;fontFamily=Figtree;fontSource=https%3A%2F%2Ffonts.googleapis.com%2Fcss%3Ffamily%3DFigtree;fontSize=10;" parent="1" vertex="1">
            <mxGeometry x="230" y="540" width="160" height="50" as="geometry" />
          </mxCell>
        </UserObject>
        <mxCell id="28ap5lXa6g6a-z7-tknB-26" value="&lt;span style=&quot;font-size: 10px;&quot;&gt;&lt;font style=&quot;font-size: 10px;&quot;&gt;End&lt;/font&gt;&lt;/span&gt;" style="rounded=1;whiteSpace=wrap;html=1;absoluteArcSize=0;arcSize=50;strokeColor=none;fillColor=#767676;fontColor=#FFFFFF;fontFamily=Figtree;fontSource=https%3A%2F%2Ffonts.googleapis.com%2Fcss%3Ffamily%3DFigtree;fontSize=10;" parent="1" vertex="1">
          <mxGeometry x="230" y="415" width="160" height="50" as="geometry" />
        </mxCell>
        <mxCell id="28ap5lXa6g6a-z7-tknB-35" value="&lt;p style=&quot;line-height: 100%; font-size: 10px;&quot;&gt;Start here&lt;/p&gt;" style="rounded=1;whiteSpace=wrap;absoluteArcSize=0;arcSize=60;fontFamily=Figtree;fontSource=https%3A%2F%2Ffonts.googleapis.com%2Fcss%3Ffamily%3DFigtree;fontSize=10;html=1;fillColor=#f5f5f5;fontColor=#333333;strokeColor=#666666;" parent="1" vertex="1">
          <mxGeometry x="405" y="30" width="190" height="40" as="geometry" />
        </mxCell>
        <UserObject label="&lt;font color=&quot;#ffffff&quot; style=&quot;font-size: 10px;&quot;&gt;Product Review&lt;/font&gt;&lt;div&gt;&lt;font color=&quot;#ffffff&quot; style=&quot;font-size: 10px;&quot;&gt;Committee&lt;/font&gt;&lt;div style=&quot;font-size: 10px;&quot;&gt;&lt;font color=&quot;#ffffff&quot; style=&quot;font-size: 10px;&quot;&gt;support? (#10)&lt;/font&gt;&lt;/div&gt;&lt;/div&gt;" link="#point10" id="28ap5lXa6g6a-z7-tknB-53">
          <mxCell style="rhombus;whiteSpace=wrap;html=1;strokeColor=none;fillColor=#1b75bb;fontFamily=Figtree;fontSource=https%3A%2F%2Ffonts.googleapis.com%2Fcss%3Ffamily%3DFigtree;fontSize=10;" parent="1" vertex="1">
            <mxGeometry x="420" y="400" width="160" height="80" as="geometry" />
          </mxCell>
        </UserObject>
        <UserObject label="&lt;font style=&quot;font-size: 10px;&quot; color=&quot;#ffffff&quot;&gt;&lt;span style=&quot;caret-color: rgb(255, 255, 255); font-size: 10px;&quot;&gt;Study Group presents outputs to the Product Steering Committee (#11)&lt;/span&gt;&lt;/font&gt;&lt;div style=&quot;font-size: 10px;&quot;&gt;&lt;font style=&quot;font-size: 10px;&quot; color=&quot;#ffffff&quot;&gt;&lt;span style=&quot;caret-color: rgb(255, 255, 255); font-size: 10px;&quot;&gt;• Evidence of outreach&lt;/span&gt;&lt;/font&gt;&lt;/div&gt;&lt;div style=&quot;font-size: 10px;&quot;&gt;&lt;font style=&quot;font-size: 10px;&quot; color=&quot;#ffffff&quot;&gt;&lt;span style=&quot;caret-color: rgb(255, 255, 255); font-size: 10px;&quot;&gt;• Landscape analysis&lt;/span&gt;&lt;/font&gt;&lt;/div&gt;&lt;div style=&quot;font-size: 10px;&quot;&gt;&lt;font style=&quot;font-size: 10px;&quot; color=&quot;#ffffff&quot;&gt;&lt;span style=&quot;caret-color: rgb(255, 255, 255); font-size: 10px;&quot;&gt;• List of those planning to adopt&lt;/span&gt;&lt;/font&gt;&lt;/div&gt;&lt;div style=&quot;font-size: 10px;&quot;&gt;&lt;font style=&quot;font-size: 10px;&quot; color=&quot;#ffffff&quot;&gt;&lt;span style=&quot;caret-color: rgb(255, 255, 255); font-size: 10px;&quot;&gt;• Use cases&lt;/span&gt;&lt;/font&gt;&lt;/div&gt;&lt;div style=&quot;font-size: 10px;&quot;&gt;&lt;font style=&quot;font-size: 10px;&quot; color=&quot;#ffffff&quot;&gt;&lt;span style=&quot;caret-color: rgb(255, 255, 255); font-size: 10px;&quot;&gt;• Regulatory &amp;amp; Ethics and&amp;nbsp;&lt;/span&gt;&lt;/font&gt;&lt;/div&gt;&lt;div style=&quot;font-size: 10px;&quot;&gt;&lt;font style=&quot;font-size: 10px;&quot; color=&quot;#ffffff&quot;&gt;&lt;span style=&quot;caret-color: rgb(255, 255, 255); font-size: 10px;&quot;&gt;Security&amp;nbsp;&lt;/span&gt;&lt;/font&gt;&lt;span style=&quot;caret-color: rgb(255, 255, 255); color: rgb(255, 255, 255); font-size: 10px;&quot;&gt;review&lt;/span&gt;&lt;/div&gt;&lt;div style=&quot;font-size: 10px;&quot;&gt;&lt;font style=&quot;font-size: 10px;&quot; color=&quot;#ffffff&quot;&gt;&lt;span style=&quot;caret-color: rgb(255, 255, 255); font-size: 10px;&quot;&gt;• Problem Statement defining scope&lt;/span&gt;&lt;/font&gt;&lt;/div&gt;" link="#point11" id="28ap5lXa6g6a-z7-tknB-54">
          <mxCell style="rounded=0;whiteSpace=wrap;html=1;strokeColor=none;fillColor=#4FAEDC;fontFamily=Figtree;fontSource=https%3A%2F%2Ffonts.googleapis.com%2Fcss%3Ffamily%3DFigtree;fontSize=10;" parent="1" vertex="1">
            <mxGeometry x="410" y="540" width="180" height="120" as="geometry" />
          </mxCell>
        </UserObject>
        <UserObject label="&lt;font color=&quot;#ffffff&quot; style=&quot;font-size: 10px;&quot;&gt;Subset/delegates of Product Steering&lt;/font&gt;&lt;div style=&quot;font-size: 10px;&quot;&gt;&lt;font color=&quot;#ffffff&quot; style=&quot;font-size: 10px;&quot;&gt;Committee review and vote&lt;/font&gt;&lt;/div&gt;&lt;div style=&quot;font-size: 10px;&quot;&gt;&lt;font color=&quot;#ffffff&quot; style=&quot;font-size: 10px;&quot;&gt;via offline ballot (#12)&lt;/font&gt;&lt;/div&gt;" link="#point12" id="28ap5lXa6g6a-z7-tknB-55">
          <mxCell style="rounded=0;whiteSpace=wrap;html=1;strokeColor=none;fillColor=#4FAEDC;fontFamily=Figtree;fontSource=https%3A%2F%2Ffonts.googleapis.com%2Fcss%3Ffamily%3DFigtree;fontSize=10;" parent="1" vertex="1">
            <mxGeometry x="410" y="690" width="180" height="50" as="geometry" />
          </mxCell>
        </UserObject>
        <mxCell id="28ap5lXa6g6a-z7-tknB-56" value="" style="endArrow=classic;html=1;rounded=0;exitX=0.5;exitY=1;exitDx=0;exitDy=0;entryX=0.5;entryY=0;entryDx=0;entryDy=0;fontSize=10;" parent="1" source="28ap5lXa6g6a-z7-tknB-35" target="28ap5lXa6g6a-z7-tknB-8" edge="1">
          <mxGeometry width="50" height="50" relative="1" as="geometry">
            <mxPoint x="650" y="270" as="sourcePoint" />
            <mxPoint x="700" y="220" as="targetPoint" />
          </mxGeometry>
        </mxCell>
        <mxCell id="28ap5lXa6g6a-z7-tknB-57" value="" style="endArrow=classic;html=1;rounded=0;exitX=0.5;exitY=1;exitDx=0;exitDy=0;fontSize=10;" parent="1" source="28ap5lXa6g6a-z7-tknB-8" target="28ap5lXa6g6a-z7-tknB-5" edge="1">
          <mxGeometry width="50" height="50" relative="1" as="geometry">
            <mxPoint x="620" y="270" as="sourcePoint" />
            <mxPoint x="670" y="220" as="targetPoint" />
          </mxGeometry>
        </mxCell>
        <mxCell id="28ap5lXa6g6a-z7-tknB-60" value="" style="endArrow=classic;html=1;rounded=0;exitX=0.5;exitY=1;exitDx=0;exitDy=0;entryX=0.5;entryY=0;entryDx=0;entryDy=0;fontSize=10;" parent="1" source="28ap5lXa6g6a-z7-tknB-5" target="28ap5lXa6g6a-z7-tknB-53" edge="1">
          <mxGeometry width="50" height="50" relative="1" as="geometry">
            <mxPoint x="410" y="440" as="sourcePoint" />
            <mxPoint x="460" y="390" as="targetPoint" />
          </mxGeometry>
        </mxCell>
        <mxCell id="28ap5lXa6g6a-z7-tknB-61" value="" style="endArrow=classic;html=1;rounded=1;exitX=0.5;exitY=1;exitDx=0;exitDy=0;entryX=0.5;entryY=0;entryDx=0;entryDy=0;curved=0;fontSize=10;" parent="1" source="28ap5lXa6g6a-z7-tknB-5" target="28ap5lXa6g6a-z7-tknB-26" edge="1">
          <mxGeometry width="50" height="50" relative="1" as="geometry">
            <mxPoint x="410" y="440" as="sourcePoint" />
            <mxPoint x="460" y="390" as="targetPoint" />
            <Array as="points">
              <mxPoint x="500" y="360" />
              <mxPoint x="310" y="360" />
            </Array>
          </mxGeometry>
        </mxCell>
        <mxCell id="28ap5lXa6g6a-z7-tknB-62" value="" style="endArrow=classic;html=1;rounded=1;exitX=0.5;exitY=1;exitDx=0;exitDy=0;entryX=1;entryY=0.5;entryDx=0;entryDy=0;curved=0;fontSize=10;" parent="1" source="28ap5lXa6g6a-z7-tknB-5" target="28ap5lXa6g6a-z7-tknB-8" edge="1">
          <mxGeometry width="50" height="50" relative="1" as="geometry">
            <mxPoint x="480" y="400" as="sourcePoint" />
            <mxPoint x="530" y="350" as="targetPoint" />
            <Array as="points">
              <mxPoint x="500" y="360" />
              <mxPoint x="620" y="360" />
              <mxPoint x="620" y="165" />
            </Array>
          </mxGeometry>
        </mxCell>
        <mxCell id="28ap5lXa6g6a-z7-tknB-63" value="" style="endArrow=classic;html=1;rounded=0;exitX=0.5;exitY=1;exitDx=0;exitDy=0;entryX=0.5;entryY=0;entryDx=0;entryDy=0;fontSize=10;" parent="1" source="28ap5lXa6g6a-z7-tknB-53" target="28ap5lXa6g6a-z7-tknB-54" edge="1">
          <mxGeometry width="50" height="50" relative="1" as="geometry">
            <mxPoint x="390" y="580" as="sourcePoint" />
            <mxPoint x="440" y="530" as="targetPoint" />
          </mxGeometry>
        </mxCell>
        <mxCell id="28ap5lXa6g6a-z7-tknB-64" value="" style="endArrow=classic;html=1;rounded=0;exitX=0.5;exitY=1;exitDx=0;exitDy=0;fontSize=10;" parent="1" source="28ap5lXa6g6a-z7-tknB-54" target="28ap5lXa6g6a-z7-tknB-55" edge="1">
          <mxGeometry width="50" height="50" relative="1" as="geometry">
            <mxPoint x="490" y="550" as="sourcePoint" />
            <mxPoint x="540" y="500" as="targetPoint" />
          </mxGeometry>
        </mxCell>
        <mxCell id="28ap5lXa6g6a-z7-tknB-65" value="" style="endArrow=classic;html=1;rounded=0;exitX=0.5;exitY=1;exitDx=0;exitDy=0;fontSize=10;" parent="1" source="28ap5lXa6g6a-z7-tknB-55" target="28ap5lXa6g6a-z7-tknB-13" edge="1">
          <mxGeometry width="50" height="50" relative="1" as="geometry">
            <mxPoint x="490" y="730" as="sourcePoint" />
            <mxPoint x="540" y="680" as="targetPoint" />
          </mxGeometry>
        </mxCell>
        <mxCell id="28ap5lXa6g6a-z7-tknB-66" value="" style="endArrow=classic;html=1;rounded=0;exitX=0.5;exitY=1;exitDx=0;exitDy=0;entryX=0.5;entryY=0;entryDx=0;entryDy=0;fontSize=10;" parent="1" source="28ap5lXa6g6a-z7-tknB-13" target="28ap5lXa6g6a-z7-tknB-6" edge="1">
          <mxGeometry width="50" height="50" relative="1" as="geometry">
            <mxPoint x="490" y="750" as="sourcePoint" />
            <mxPoint x="540" y="700" as="targetPoint" />
          </mxGeometry>
        </mxCell>
        <mxCell id="28ap5lXa6g6a-z7-tknB-67" value="" style="endArrow=classic;html=1;rounded=1;exitX=0.5;exitY=1;exitDx=0;exitDy=0;entryX=0.5;entryY=0;entryDx=0;entryDy=0;curved=0;fontSize=10;" parent="1" source="28ap5lXa6g6a-z7-tknB-53" target="28ap5lXa6g6a-z7-tknB-15" edge="1">
          <mxGeometry width="50" height="50" relative="1" as="geometry">
            <mxPoint x="340" y="540" as="sourcePoint" />
            <mxPoint x="390" y="490" as="targetPoint" />
            <Array as="points">
              <mxPoint x="500" y="500" />
              <mxPoint x="310" y="500" />
            </Array>
          </mxGeometry>
        </mxCell>
        <mxCell id="28ap5lXa6g6a-z7-tknB-68" value="" style="endArrow=classic;html=1;rounded=1;exitX=0.5;exitY=1;exitDx=0;exitDy=0;entryX=0;entryY=0.5;entryDx=0;entryDy=0;curved=0;fontSize=10;" parent="1" source="28ap5lXa6g6a-z7-tknB-15" target="28ap5lXa6g6a-z7-tknB-5" edge="1">
          <mxGeometry width="50" height="50" relative="1" as="geometry">
            <mxPoint x="220" y="520" as="sourcePoint" />
            <mxPoint x="270" y="470" as="targetPoint" />
            <Array as="points">
              <mxPoint x="310" y="620" />
              <mxPoint x="180" y="620" />
              <mxPoint x="180" y="310" />
            </Array>
          </mxGeometry>
        </mxCell>
        <mxCell id="28ap5lXa6g6a-z7-tknB-70" value="No" style="edgeLabel;html=1;align=center;verticalAlign=middle;resizable=0;points=[];labelBackgroundColor=#FFFFFF;fontFamily=Figtree;fontSize=10;fontSource=https%3A%2F%2Ffonts.googleapis.com%2Fcss%3Ffamily%3DFigtree;" parent="1" vertex="1" connectable="0">
          <mxGeometry x="333" y="93" as="geometry">
            <mxPoint x="126" y="266" as="offset" />
          </mxGeometry>
        </mxCell>
        <mxCell id="28ap5lXa6g6a-z7-tknB-71" value="No,&lt;div style=&quot;font-size: 10px;&quot;&gt;return to&lt;/div&gt;&lt;div style=&quot;font-size: 10px;&quot;&gt;STUDY&lt;/div&gt;" style="edgeLabel;html=1;align=center;verticalAlign=middle;resizable=0;points=[];labelBackgroundColor=#FFFFFF;fontFamily=Figtree;fontSize=10;fontSource=https%3A%2F%2Ffonts.googleapis.com%2Fcss%3Ffamily%3DFigtree;" parent="1" vertex="1" connectable="0">
          <mxGeometry x="425" y="92" as="geometry">
            <mxPoint x="126" y="266" as="offset" />
          </mxGeometry>
        </mxCell>
        <mxCell id="28ap5lXa6g6a-z7-tknB-72" value="Yes" style="edgeLabel;html=1;align=center;verticalAlign=middle;resizable=0;points=[];labelBackgroundColor=#FFFFFF;fontFamily=Figtree;fontSize=10;fontSource=https%3A%2F%2Ffonts.googleapis.com%2Fcss%3Ffamily%3DFigtree;" parent="1" vertex="1" connectable="0">
          <mxGeometry x="373" y="109" as="geometry">
            <mxPoint x="126" y="266" as="offset" />
          </mxGeometry>
        </mxCell>
        <mxCell id="28ap5lXa6g6a-z7-tknB-73" value="No,&lt;div style=&quot;font-size: 10px;&quot;&gt;with&lt;/div&gt;&lt;div style=&quot;font-size: 10px;&quot;&gt;feedback&lt;/div&gt;" style="edgeLabel;html=1;align=center;verticalAlign=middle;resizable=0;points=[];labelBackgroundColor=#FFFFFF;fontFamily=Figtree;fontSize=10;fontSource=https%3A%2F%2Ffonts.googleapis.com%2Fcss%3Ffamily%3DFigtree;" parent="1" vertex="1" connectable="0">
          <mxGeometry x="333" y="230" as="geometry">
            <mxPoint x="126" y="266" as="offset" />
          </mxGeometry>
        </mxCell>
        <mxCell id="28ap5lXa6g6a-z7-tknB-74" value="Yes" style="edgeLabel;html=1;align=center;verticalAlign=middle;resizable=0;points=[];labelBackgroundColor=#FFFFFF;fontFamily=Figtree;fontSize=10;fontSource=https%3A%2F%2Ffonts.googleapis.com%2Fcss%3Ffamily%3DFigtree;" parent="1" vertex="1" connectable="0">
          <mxGeometry x="373" y="250" as="geometry">
            <mxPoint x="126" y="266" as="offset" />
          </mxGeometry>
        </mxCell>
        <mxCell id="28ap5lXa6g6a-z7-tknB-75" value="Yes" style="edgeLabel;html=1;align=center;verticalAlign=middle;resizable=0;points=[];labelBackgroundColor=#FFFFFF;fontFamily=Figtree;fontSize=10;fontSource=https%3A%2F%2Ffonts.googleapis.com%2Fcss%3Ffamily%3DFigtree;" parent="1" vertex="1" connectable="0">
          <mxGeometry x="373" y="615" as="geometry">
            <mxPoint x="126" y="266" as="offset" />
          </mxGeometry>
        </mxCell>
        <mxCell id="28ap5lXa6g6a-z7-tknB-76" value="" style="endArrow=classic;html=1;rounded=1;exitX=0.5;exitY=1;exitDx=0;exitDy=0;curved=0;fontSize=10;" parent="1" source="28ap5lXa6g6a-z7-tknB-13" edge="1">
          <mxGeometry width="50" height="50" relative="1" as="geometry">
            <mxPoint x="480" y="780" as="sourcePoint" />
            <mxPoint x="180" y="610" as="targetPoint" />
            <Array as="points">
              <mxPoint x="500" y="870" />
              <mxPoint x="180" y="870" />
            </Array>
          </mxGeometry>
        </mxCell>
        <mxCell id="28ap5lXa6g6a-z7-tknB-77" value="No" style="edgeLabel;html=1;align=center;verticalAlign=middle;resizable=0;points=[];labelBackgroundColor=#FFFFFF;fontFamily=Figtree;fontSize=10;fontSource=https%3A%2F%2Ffonts.googleapis.com%2Fcss%3Ffamily%3DFigtree;" parent="1" vertex="1" connectable="0">
          <mxGeometry x="341" y="603" as="geometry">
            <mxPoint x="126" y="266" as="offset" />
          </mxGeometry>
        </mxCell>
      </root>
    </mxGraphModel>
  </diagram>
</mxfile>
